<svg aria-hidden="true" style="width:0;height:0;position:absolute;overflow:hidden" xmlns="http://www.w3.org/2000/svg"><defs><symbol id="icon-arrow-bottom" viewBox="0 0 32 32"><path fill="#f3f3f3" style="fill:var(--color1,#f3f3f3)" d="M31.623 8.356c-.246-.228-.577-.356-.921-.356s-.675.128-.921.356L15.999 21.113 2.22 8.356C1.974 8.128 1.643 8 1.299 8s-.675.128-.921.356c-.12.111-.215.244-.281.39a1.124 1.124 0 0 0 0 .926c.065.146.161.279.281.39l14.659 13.565c.257.238.603.372.962.372s.705-.133.962-.372L31.62 10.062c.12-.111.215-.244.281-.39a1.124 1.124 0 0 0 0-.926 1.196 1.196 0 0 0-.281-.39h.003z"/></symbol><symbol id="icon-arrow-left" viewBox="0 0 32 32"><path fill="#f3f3f3" style="fill:var(--color1,#f3f3f3)" d="M23.644 31.623c.228-.246.356-.577.356-.921s-.128-.675-.356-.921L10.887 15.999 23.644 2.22c.228-.246.356-.577.356-.921s-.128-.675-.356-.921c-.111-.12-.244-.215-.39-.281a1.124 1.124 0 0 0-.926 0 1.196 1.196 0 0 0-.39.281L8.373 15.037c-.238.257-.372.603-.372.962s.133.705.372.962L21.938 31.62c.111.12.244.215.39.281a1.124 1.124 0 0 0 .926 0c.146-.065.279-.161.39-.281v.003z"/></symbol><symbol id="icon-arrow-right" viewBox="0 0 32 32"><path fill="#f3f3f3" style="fill:var(--color1,#f3f3f3)" d="M8.356.377C8.128.623 8 .954 8 1.298s.128.675.356.921l12.757 13.782L8.356 29.78c-.228.246-.356.577-.356.921s.128.674.356.921c.111.12.244.215.39.281a1.124 1.124 0 0 0 .926 0c.146-.065.279-.161.39-.281l13.565-14.659c.238-.257.372-.603.372-.962s-.133-.705-.372-.962L10.062.38c-.111-.12-.244-.215-.39-.281a1.124 1.124 0 0 0-.926 0 1.196 1.196 0 0 0-.39.281V.377z"/></symbol><symbol id="icon-arrow-top" viewBox="0 0 32 32"><path fill="#f3f3f3" style="fill:var(--color1,#f3f3f3)" d="M.377 23.644c.246.228.577.356.921.356s.675-.128.921-.356l13.782-12.757L29.78 23.644c.246.228.577.356.921.356s.674-.128.921-.356c.12-.111.215-.244.281-.39a1.124 1.124 0 0 0 0-.926 1.196 1.196 0 0 0-.281-.39L16.963 8.373c-.257-.238-.603-.372-.962-.372s-.705.133-.962.372L.38 21.938c-.12.111-.215.244-.281.39a1.124 1.124 0 0 0 0 .926c.065.146.161.279.281.39H.377z"/></symbol><symbol id="icon-burger-menu" viewBox="0 0 32 32"><path fill="none" stroke="#f3f3f3" style="stroke:var(--color1,#f3f3f3)" stroke-width="1.032" d="M0 7.742h32M0 16h32M0 24.258h32"/></symbol><symbol id="icon-cross" viewBox="0 0 32 32"><path fill="#f5f5f5" style="fill:var(--color2,#f5f5f5)" d="M16 12.648 27.733.915l3.352 3.352L19.352 16l11.733 11.733-3.352 3.352L16 19.352 4.267 31.085.915 27.733 12.648 16 .915 4.267 4.267.915 16 12.648z"/></symbol><symbol id="icon-envelope" viewBox="0 0 32 32"><path fill="#f3f3f3" style="fill:var(--color1,#f3f3f3)" d="M29.576 4.364H2.424A1.937 1.937 0 0 0 .485 6.303v19.394a1.937 1.937 0 0 0 1.939 1.939h27.152a1.937 1.937 0 0 0 1.939-1.939V6.303a1.937 1.937 0 0 0-1.939-1.939zm-1.493 21.333H4.035l6.788-7.021-1.396-1.348-7.001 7.244V7.777l12.053 11.995a1.94 1.94 0 0 0 2.734 0L29.577 7.476v16.97l-7.137-7.137-1.367 1.367 7.011 7.021zM3.695 6.303h24.31l-12.16 12.092L3.695 6.303z"/></symbol><symbol id="icon-intagram" viewBox="0 0 32 32"><path fill="#f3f3f3" style="fill:var(--color1,#f3f3f3)" d="M15.969.125c4.312 0 4.844.031 6.531.094 1.656.063 2.813.344 3.844.75 1.063.406 1.937.938 2.813 1.813s1.406 1.75 1.813 2.813c.406 1.031.687 2.188.75 3.844.062 1.688.094 2.219.094 6.531s-.031 4.844-.094 6.531c-.063 1.656-.344 2.813-.75 3.844-.406 1.063-.938 1.937-1.813 2.813s-1.75 1.406-2.813 1.813c-1.031.406-2.187.687-3.844.75-1.687.062-2.219.094-6.531.094s-4.844-.031-6.531-.094c-1.656-.063-2.813-.344-3.844-.75-1.063-.406-1.938-.938-2.813-1.813s-1.406-1.75-1.813-2.813c-.406-1.031-.688-2.187-.75-3.844-.063-1.687-.094-2.219-.094-6.531s.031-4.844.094-6.531c.063-1.656.344-2.813.75-3.844.406-1.063.938-1.938 1.813-2.813S4.531 1.376 5.594.969C6.625.563 7.782.281 9.438.219c1.688-.063 2.219-.094 6.531-.094zm0 2.063c-4.5 0-5.031.031-6.781.094-1.625.063-2.531.375-3.125.594-1.531.625-2.563 1.656-3.188 3.188-.219.594-.531 1.5-.594 3.125-.063 1.75-.094 2.281-.094 6.781s.031 5.031.094 6.781c.063 1.625.375 2.531.594 3.125.625 1.531 1.656 2.563 3.188 3.188.594.219 1.5.531 3.125.594 1.75.063 2.281.094 6.781.094s5.031-.031 6.781-.094c1.625-.063 2.531-.375 3.125-.594 1.531-.625 2.563-1.656 3.188-3.188.219-.594.531-1.5.594-3.125.063-1.75.094-2.281.094-6.781s-.031-5.031-.094-6.781c-.063-1.625-.375-2.531-.594-3.125-.625-1.531-1.656-2.563-3.188-3.188-.594-.219-1.5-.531-3.125-.594-1.75-.063-2.281-.094-6.781-.094zm0 20.125c3.5 0 6.344-2.844 6.344-6.344s-2.844-6.344-6.344-6.344c-3.5 0-6.344 2.844-6.344 6.344s2.844 6.344 6.344 6.344zm0-14.469c4.5 0 8.125 3.625 8.125 8.125s-3.625 8.125-8.125 8.125-8.125-3.625-8.125-8.125 3.625-8.125 8.125-8.125zm10.375-.313c0 1.063-.875 1.875-1.937 1.875s-1.875-.813-1.875-1.875c0-1.063.813-1.938 1.875-1.938s1.937.875 1.937 1.938z"/></symbol><symbol id="icon-location" viewBox="0 0 32 32"><path fill="#f3f3f3" style="fill:var(--color1,#f3f3f3)" d="M25 13a9 9 0 1 0-18 0c0 3.692 2.954 8.504 9 14.268 6.046-5.764 9-10.576 9-14.268zm-9 17C8.666 23.334 5 17.666 5 13a11 11 0 0 1 22 0c0 4.666-3.666 10.334-11 17z"/><path fill="#f3f3f3" style="fill:var(--color1,#f3f3f3)" d="M16 16a3.004 3.004 0 0 0 3-3 3.004 3.004 0 0 0-3-3 2.998 2.998 0 0 0-3 3 2.998 2.998 0 0 0 3 3zm0 2a4.997 4.997 0 0 1-5-5 4.997 4.997 0 0 1 5-5 4.997 4.997 0 0 1 5 5 4.997 4.997 0 0 1-5 5z"/></symbol><symbol id="icon-logo" viewBox="0 0 32 32"><path fill="#f3f3f3" style="fill:var(--color1,#f3f3f3)" d="M31.979 15.799C31.332 3.75 25.522 1.988 20.839 1.988c-1.183.001-2.294.113-3.232.201-.008-.548.014-1.135.1-1.783.002-.009-.002-.017-.003-.026.001-.005.003-.009.003-.014 0-.202-.354-.366-.793-.366-.437 0-.791.164-.791.366-.12.654-.283 1.298-.489 1.926-6.18.04-14.32 1.09-15.563 13.098C-.83 24.105 7.114 32 16.051 32S32.45 24.557 31.98 15.799zM17.939 3.878c.218-.021.444-.042.677-.062-.279.121-.551.246-.806.371-.019-.09-.032-.198-.049-.294l.178-.016zm-2.965.136c-.07.156-.138.306-.204.443a5.023 5.023 0 0 0-.498-.424c.234-.009.467-.014.701-.019zm12.038 21.315a14.62 14.62 0 0 1-10.962 4.957c-4.27 0-8.512-2.025-11.347-5.417-2.297-2.749-3.378-6.048-3.042-9.29.63-6.085 3.142-8.991 6.367-10.367 3.124-.622 6.064.52 6.064.52S7.41 3.955 4.79 13.154c3.298-5.508 8.972-3.887 10.465-5.917 0 3.925 2.662 2.021 4.008 3.789 1.731 2.273 2.365 6.346 4.356 7.149-1.962-4.512 1.25-4.336-3.262-10.391 2.377 1.582 3.61-.019 6.855 1.407-2.777-4.863-7.22-3.457-7.22-3.457s1.808-1.765 3.725-1.716c3.238.81 6.217 3.537 6.666 11.883.182 3.409-1.014 6.758-3.37 9.431z"/></symbol><symbol id="icon-twitter" viewBox="0 0 32 32"><path fill="#f3f3f3" style="fill:var(--color1,#f3f3f3)" d="M16.5 1.992v6.996h7.01v2.999h-6.979l-.01 8.704c0 1.618.084 2.657.255 3.117.267.727 1.236 1.657 3.037 1.657 1.397 0 3.281-.42 4.693-1.477v4.666c-1.177.561-2.273.788-3.227 1.015-.955.225-1.989.339-3.098.339-1.236 0-4.802-.034-6.266-3.763-.264-.671-.395-1.645-.395-2.921V11.992H7.493l.019-3.066c1.333 0 5.332-.81 5.332-6.934H16.5zm0-2h-3.655a2 2 0 0 0-2 2c0 4.578-2.551 4.934-3.332 4.934a2 2 0 0 0-2 1.99l-.019 3.066a2.002 2.002 0 0 0 2 2.01h2.027v9.332c0 1.543.175 2.739.534 3.653.901 2.295 3.043 5.032 8.127 5.032a15.48 15.48 0 0 0 3.558-.393l.221-.052c.933-.219 2.126-.493 3.406-1.103a2.003 2.003 0 0 0 1.14-1.806v-4.666a1.993 1.993 0 0 0-1.105-1.788 2.004 2.004 0 0 0-2.093.186c-1.19.892-2.714 1.078-3.494 1.078-.8 0-1.097-.29-1.163-.367-.034-.157-.129-.743-.129-2.407l.007-6.704h4.981a2 2 0 0 0 2-2V8.988a2 2 0 0 0-2-2h-5.01V1.992a2 2 0 0 0-2-2z"/></symbol><symbol id="icon-youtube" viewBox="0 0 32 32"><path fill="#f3f3f3" style="fill:var(--color1,#f3f3f3)" d="M29.398 5.928c-.867-.624-3.283-1.453-13.406-1.453-10.849 0-12.458.952-12.975 1.264C.268 7.39.007 14.702-.017 16.184c.033 1.958.349 8.473 3.032 10.084.516.31 2.116 1.257 12.977 1.257 10.13 0 12.543-.825 13.406-1.447 2.343-1.685 2.613-7.49 2.619-9.92-.006-1.954-.211-8.496-2.619-10.23zM28.23 24.455c-.349.251-2.35 1.069-12.239 1.069-9.56 0-11.566-.742-11.945-.971-.965-.579-1.984-3.653-2.063-8.376.079-4.713 1.111-8.153 2.066-8.725.38-.229 2.393-.978 11.943-.978 9.881 0 11.887.824 12.239 1.076.857.617 1.773 3.865 1.787 8.614-.013 4.823-.936 7.679-1.787 8.291zm-5.717-9.242-8.998-5.522a.996.996 0 0 0-1.38.352 1.004 1.004 0 0 0-.137.504v11.045a1.003 1.003 0 0 0 1 1c.182 0 .361-.05.517-.143l8.998-5.524a1 1 0 0 0 0-1.713zm-8.514 4.609v-7.503l6.063 3.751-6.063 3.752z"/></symbol><symbol id="icon-smartphone" viewBox="0 0 20 32"><path fill="#757575" style="fill:var(--color3,#757575)" d="M17 0H3C1.346 0 0 1.346 0 3v26c0 1.654 1.346 3 3 3h14c1.654 0 3-1.346 3-3V3c0-1.654-1.346-3-3-3zM3 2h14a1 1 0 0 1 1 1v21H2V3a1 1 0 0 1 1-1zm14 28H3a1 1 0 0 1-1-1v-3h16v3a1 1 0 0 1-1 1z"/><path fill="#757575" style="fill:var(--color3,#757575)" d="M4.707 27.478c.391.365.391.956 0 1.321s-1.024.365-1.414 0c-.391-.365-.391-.956 0-1.321s1.024-.365 1.414 0z"/></symbol></defs></svg>