<svg aria-hidden="true" style="position: absolute; width: 0; height: 0; overflow: hidden;" version="1.1" xmlns="http://www.w3.org/2000/svg" xmlns:xlink="http://www.w3.org/1999/xlink">
<defs>
<symbol id="icon-arrow-bottom" viewBox="0 0 32 32">
<path fill="#f3f3f3" style="fill: var(--color1, #f3f3f3)" d="M31.623 8.356c-0.246-0.228-0.577-0.356-0.921-0.356s-0.675 0.128-0.921 0.356l-13.782 12.757-13.779-12.757c-0.246-0.228-0.577-0.356-0.921-0.356s-0.675 0.128-0.921 0.356c-0.12 0.111-0.215 0.244-0.281 0.39s-0.099 0.304-0.099 0.463c0 0.159 0.034 0.317 0.099 0.463s0.161 0.279 0.281 0.39l14.659 13.565c0.257 0.238 0.603 0.372 0.962 0.372s0.705-0.133 0.962-0.372l14.659-13.565c0.12-0.111 0.215-0.244 0.281-0.39s0.099-0.304 0.099-0.463c0-0.159-0.034-0.317-0.099-0.463s-0.161-0.279-0.281-0.39h0.003z"></path>
</symbol>
<symbol id="icon-arrow-left" viewBox="0 0 32 32">
<path fill="#f3f3f3" style="fill: var(--color1, #f3f3f3)" d="M23.644 31.623c0.228-0.246 0.356-0.577 0.356-0.921s-0.128-0.675-0.356-0.921l-12.757-13.782 12.757-13.779c0.228-0.246 0.356-0.577 0.356-0.921s-0.128-0.675-0.356-0.921c-0.111-0.12-0.244-0.215-0.39-0.281s-0.304-0.099-0.463-0.099c-0.159 0-0.317 0.034-0.463 0.099s-0.279 0.161-0.39 0.281l-13.565 14.659c-0.238 0.257-0.372 0.603-0.372 0.962s0.133 0.705 0.372 0.962l13.565 14.659c0.111 0.12 0.244 0.215 0.39 0.281s0.304 0.099 0.463 0.099c0.159 0 0.317-0.034 0.463-0.099s0.279-0.161 0.39-0.281v0.003z"></path>
</symbol>
<symbol id="icon-arrow-right" viewBox="0 0 32 32">
<path fill="#f3f3f3" style="fill: var(--color1, #f3f3f3)" d="M8.356 0.377c-0.228 0.246-0.356 0.577-0.356 0.921s0.128 0.675 0.356 0.921l12.757 13.782-12.757 13.779c-0.228 0.246-0.356 0.577-0.356 0.921s0.128 0.674 0.356 0.921c0.111 0.12 0.244 0.215 0.39 0.281s0.304 0.099 0.463 0.099c0.159 0 0.317-0.034 0.463-0.099s0.279-0.161 0.39-0.281l13.565-14.659c0.238-0.257 0.372-0.603 0.372-0.962s-0.133-0.705-0.372-0.962l-13.565-14.659c-0.111-0.12-0.244-0.215-0.39-0.281s-0.304-0.099-0.463-0.099c-0.159 0-0.317 0.034-0.463 0.099s-0.279 0.161-0.39 0.281v-0.003z"></path>
</symbol>
<symbol id="icon-arrow-top" viewBox="0 0 32 32">
<path fill="#f3f3f3" style="fill: var(--color1, #f3f3f3)" d="M0.377 23.644c0.246 0.228 0.577 0.356 0.921 0.356s0.675-0.128 0.921-0.356l13.782-12.757 13.779 12.757c0.246 0.228 0.577 0.356 0.921 0.356s0.674-0.128 0.921-0.356c0.12-0.111 0.215-0.244 0.281-0.39s0.099-0.304 0.099-0.463c0-0.159-0.034-0.317-0.099-0.463s-0.161-0.279-0.281-0.39l-14.659-13.565c-0.257-0.238-0.603-0.372-0.962-0.372s-0.705 0.133-0.962 0.372l-14.659 13.565c-0.12 0.111-0.215 0.244-0.281 0.39s-0.099 0.304-0.099 0.463c0 0.159 0.034 0.317 0.099 0.463s0.161 0.279 0.281 0.39h-0.003z"></path>
</symbol>
<symbol id="icon-burger-menu" viewBox="0 0 32 32">
<path fill="none" stroke="#f3f3f3" style="stroke: var(--color1, #f3f3f3)" stroke-linejoin="miter" stroke-linecap="butt" stroke-miterlimit="4" stroke-width="1.0323" d="M0 7.742h32"></path>
<path fill="none" stroke="#f3f3f3" style="stroke: var(--color1, #f3f3f3)" stroke-linejoin="miter" stroke-linecap="butt" stroke-miterlimit="4" stroke-width="1.0323" d="M0 16h32"></path>
<path fill="none" stroke="#f3f3f3" style="stroke: var(--color1, #f3f3f3)" stroke-linejoin="miter" stroke-linecap="butt" stroke-miterlimit="4" stroke-width="1.0323" d="M0 24.258h32"></path>
</symbol>
<symbol id="icon-cross" viewBox="0 0 32 32">
<path fill="#f5f5f5" style="fill: var(--color2, #f5f5f5)" d="M16 12.648l11.733-11.733 3.352 3.352-11.733 11.733 11.733 11.733-3.352 3.352-11.733-11.733-11.733 11.733-3.352-3.352 11.733-11.733-11.733-11.733 3.352-3.352 11.733 11.733z"></path>
</symbol>
<symbol id="icon-envelope" viewBox="0 0 32 32">
<path fill="#f3f3f3" style="fill: var(--color1, #f3f3f3)" d="M29.576 4.364h-27.152c-0.514 0-1.008 0.204-1.371 0.568s-0.568 0.857-0.568 1.371v19.394c0 0.514 0.204 1.008 0.568 1.371s0.857 0.568 1.371 0.568h27.152c0.514 0 1.008-0.204 1.371-0.568s0.568-0.857 0.568-1.371v-19.394c0-0.514-0.204-1.008-0.568-1.371s-0.857-0.568-1.371-0.568zM28.083 25.697h-24.048l6.788-7.021-1.396-1.348-7.001 7.244v-16.795l12.053 11.995c0.363 0.361 0.855 0.564 1.367 0.564s1.004-0.203 1.367-0.564l12.364-12.296v16.97l-7.137-7.137-1.367 1.367 7.011 7.021zM3.695 6.303h24.31l-12.16 12.092-12.15-12.092z"></path>
</symbol>
<symbol id="icon-intagram" viewBox="0 0 32 32">
<path fill="#f3f3f3" style="fill: var(--color1, #f3f3f3)" d="M15.969 0.125c4.312 0 4.844 0.031 6.531 0.094 1.656 0.063 2.813 0.344 3.844 0.75 1.063 0.406 1.937 0.938 2.813 1.813s1.406 1.75 1.813 2.813c0.406 1.031 0.687 2.188 0.75 3.844 0.062 1.688 0.094 2.219 0.094 6.531s-0.031 4.844-0.094 6.531c-0.063 1.656-0.344 2.813-0.75 3.844-0.406 1.063-0.938 1.937-1.813 2.813s-1.75 1.406-2.813 1.813c-1.031 0.406-2.187 0.687-3.844 0.75-1.687 0.062-2.219 0.094-6.531 0.094s-4.844-0.031-6.531-0.094c-1.656-0.063-2.813-0.344-3.844-0.75-1.063-0.406-1.938-0.938-2.813-1.813s-1.406-1.75-1.813-2.813c-0.406-1.031-0.688-2.187-0.75-3.844-0.063-1.687-0.094-2.219-0.094-6.531s0.031-4.844 0.094-6.531c0.063-1.656 0.344-2.813 0.75-3.844 0.406-1.063 0.938-1.938 1.813-2.813s1.75-1.406 2.813-1.813c1.031-0.406 2.188-0.688 3.844-0.75 1.688-0.063 2.219-0.094 6.531-0.094zM15.969 2.188c-4.5 0-5.031 0.031-6.781 0.094-1.625 0.063-2.531 0.375-3.125 0.594-1.531 0.625-2.563 1.656-3.188 3.188-0.219 0.594-0.531 1.5-0.594 3.125-0.063 1.75-0.094 2.281-0.094 6.781s0.031 5.031 0.094 6.781c0.063 1.625 0.375 2.531 0.594 3.125 0.625 1.531 1.656 2.563 3.188 3.188 0.594 0.219 1.5 0.531 3.125 0.594 1.75 0.063 2.281 0.094 6.781 0.094s5.031-0.031 6.781-0.094c1.625-0.063 2.531-0.375 3.125-0.594 1.531-0.625 2.563-1.656 3.188-3.188 0.219-0.594 0.531-1.5 0.594-3.125 0.063-1.75 0.094-2.281 0.094-6.781s-0.031-5.031-0.094-6.781c-0.063-1.625-0.375-2.531-0.594-3.125-0.625-1.531-1.656-2.563-3.188-3.188-0.594-0.219-1.5-0.531-3.125-0.594-1.75-0.063-2.281-0.094-6.781-0.094zM15.969 22.313c3.5 0 6.344-2.844 6.344-6.344s-2.844-6.344-6.344-6.344c-3.5 0-6.344 2.844-6.344 6.344s2.844 6.344 6.344 6.344zM15.969 7.844c4.5 0 8.125 3.625 8.125 8.125s-3.625 8.125-8.125 8.125c-4.5 0-8.125-3.625-8.125-8.125s3.625-8.125 8.125-8.125zM26.344 7.531c0 1.063-0.875 1.875-1.937 1.875s-1.875-0.813-1.875-1.875c0-1.063 0.813-1.938 1.875-1.938s1.937 0.875 1.937 1.938z"></path>
</symbol>
<symbol id="icon-location" viewBox="0 0 32 32">
<path fill="#f3f3f3" style="fill: var(--color1, #f3f3f3)" d="M25 13c0-2.387-0.948-4.676-2.636-6.364s-3.977-2.636-6.364-2.636-4.676 0.948-6.364 2.636c-1.688 1.688-2.636 3.977-2.636 6.364 0 3.692 2.954 8.504 9 14.268 6.046-5.764 9-10.576 9-14.268zM16 30c-7.334-6.666-11-12.334-11-17 0-2.917 1.159-5.715 3.222-7.778s4.861-3.222 7.778-3.222c2.917 0 5.715 1.159 7.778 3.222s3.222 4.861 3.222 7.778c0 4.666-3.666 10.334-11 17z"></path>
<path fill="#f3f3f3" style="fill: var(--color1, #f3f3f3)" d="M16 16c0.796 0 1.559-0.316 2.121-0.879s0.879-1.326 0.879-2.121c0-0.796-0.316-1.559-0.879-2.121s-1.326-0.879-2.121-0.879-1.559 0.316-2.121 0.879c-0.563 0.563-0.879 1.326-0.879 2.121s0.316 1.559 0.879 2.121c0.563 0.563 1.326 0.879 2.121 0.879zM16 18c-1.326 0-2.598-0.527-3.536-1.464s-1.464-2.209-1.464-3.536c0-1.326 0.527-2.598 1.464-3.536s2.209-1.464 3.536-1.464c1.326 0 2.598 0.527 3.536 1.464s1.464 2.209 1.464 3.536c0 1.326-0.527 2.598-1.464 3.536s-2.209 1.464-3.536 1.464z"></path>
</symbol>
<symbol id="icon-logo" viewBox="0 0 32 32">
<path fill="#f3f3f3" style="fill: var(--color1, #f3f3f3)" d="M31.979 15.799c-0.647-12.049-6.457-13.811-11.14-13.811h-0c-1.183 0.001-2.294 0.113-3.232 0.201-0.008-0.548 0.014-1.135 0.1-1.783 0.002-0.009-0.002-0.017-0.003-0.026 0.001-0.005 0.003-0.009 0.003-0.014 0-0.202-0.354-0.366-0.793-0.366-0.437 0-0.791 0.164-0.791 0.366-0.12 0.654-0.283 1.298-0.489 1.926-6.18 0.040-14.32 1.090-15.563 13.098-0.901 8.715 7.043 16.61 15.98 16.61s16.399-7.443 15.929-16.201zM17.939 3.878c0.218-0.021 0.444-0.042 0.677-0.062-0.279 0.121-0.551 0.246-0.806 0.371-0.019-0.090-0.032-0.198-0.049-0.294l0.178-0.016zM14.974 4.014c-0.070 0.156-0.138 0.306-0.204 0.443-0.157-0.152-0.323-0.294-0.498-0.424 0.234-0.009 0.467-0.014 0.701-0.019zM27.012 25.329c-2.776 3.15-6.772 4.957-10.962 4.957-4.27 0-8.512-2.025-11.347-5.417-2.297-2.749-3.378-6.048-3.042-9.29 0.63-6.085 3.142-8.991 6.367-10.367 3.124-0.622 6.064 0.52 6.064 0.52s-6.682-1.777-9.302 7.422c3.298-5.508 8.972-3.887 10.465-5.917 0 3.925 2.662 2.021 4.008 3.789 1.731 2.273 2.365 6.346 4.356 7.149-1.962-4.512 1.25-4.336-3.262-10.391 2.377 1.582 3.61-0.019 6.855 1.407-2.777-4.863-7.22-3.457-7.22-3.457s1.808-1.765 3.725-1.716c3.238 0.81 6.217 3.537 6.666 11.883 0.182 3.409-1.014 6.758-3.37 9.431z"></path>
</symbol>
<symbol id="icon-twitter" viewBox="0 0 32 32">
<path fill="#f3f3f3" style="fill: var(--color1, #f3f3f3)" d="M16.5 1.992l-0 6.996h7.010v2.999h-6.979l-0.010 8.704c0 1.618 0.084 2.657 0.255 3.117 0.267 0.727 1.236 1.657 3.037 1.657 1.397 0 3.281-0.42 4.693-1.477v4.666c-1.177 0.561-2.273 0.788-3.227 1.015-0.955 0.225-1.989 0.339-3.098 0.339-1.236 0-4.802-0.034-6.266-3.763-0.264-0.671-0.395-1.645-0.395-2.921v-11.332h-4.027l0.019-3.066c1.333 0 5.332-0.81 5.332-6.934l3.656-0zM16.5-0.008l-3.655-0c-1.104 0-2 0.895-2 2 0 4.578-2.551 4.934-3.332 4.934-1.101 0-1.995 0.889-2 1.99l-0.019 3.066c-0.003 0.532 0.207 1.043 0.582 1.421 0.186 0.187 0.407 0.335 0.65 0.436s0.504 0.153 0.768 0.153h2.027v9.332c0 1.543 0.175 2.739 0.534 3.653 0.901 2.295 3.043 5.032 8.127 5.032 1.259 0 2.456-0.132 3.558-0.393l0.221-0.052c0.933-0.219 2.126-0.493 3.406-1.103 0.341-0.163 0.629-0.418 0.831-0.738s0.309-0.69 0.309-1.068v-4.666c-0-0.371-0.103-0.735-0.299-1.051s-0.474-0.571-0.806-0.737c-0.283-0.143-0.59-0.212-0.895-0.212-0.432 0-0.852 0.14-1.198 0.398-1.19 0.892-2.714 1.078-3.494 1.078-0.8 0-1.097-0.29-1.163-0.367-0.034-0.157-0.129-0.743-0.129-2.407l0.007-6.704h4.981c1.105 0 2-0.896 2-2v-2.999c0-1.104-0.895-2-2-2h-5.010v-4.996c0-1.105-0.895-2-2-2h0z"></path>
</symbol>
<symbol id="icon-youtube" viewBox="0 0 32 32">
<path fill="#f3f3f3" style="fill: var(--color1, #f3f3f3)" d="M29.398 5.928c-0.867-0.624-3.283-1.453-13.406-1.453-10.849 0-12.458 0.952-12.975 1.264-2.749 1.651-3.010 8.963-3.034 10.445 0.033 1.958 0.349 8.473 3.032 10.084 0.516 0.31 2.116 1.257 12.977 1.257 10.13 0 12.543-0.825 13.406-1.447 2.343-1.685 2.613-7.49 2.619-9.92-0.006-1.954-0.211-8.496-2.619-10.23v-0zM28.23 24.455c-0.349 0.251-2.35 1.069-12.239 1.069-9.56 0-11.566-0.742-11.945-0.971-0.965-0.579-1.984-3.653-2.063-8.376 0.079-4.713 1.111-8.153 2.066-8.725 0.38-0.229 2.393-0.978 11.943-0.978 9.881 0 11.887 0.824 12.239 1.076 0.857 0.617 1.773 3.865 1.787 8.614-0.013 4.823-0.936 7.679-1.787 8.291v0zM22.513 15.213l-8.998-5.522c-0.152-0.091-0.325-0.141-0.502-0.144s-0.352 0.042-0.506 0.129c-0.154 0.087-0.283 0.214-0.372 0.367s-0.137 0.327-0.137 0.504v11.045c0 0.265 0.106 0.519 0.293 0.707s0.442 0.293 0.707 0.293c0.182 0 0.361-0.050 0.517-0.143l8.998-5.524c0.3-0.181 0.483-0.506 0.483-0.856s-0.183-0.676-0.483-0.857h-0zM13.999 19.822v-7.503l6.063 3.751-6.063 3.752z"></path>
</symbol>
<symbol id="icon-smartphone" viewBox="0 0 20 32">
<path fill="#757575" style="fill: var(--color3, #757575)" d="M17 0h-14c-1.654 0-3 1.346-3 3v26c0 1.654 1.346 3 3 3h14c1.654 0 3-1.346 3-3v-26c0-1.654-1.346-3-3-3zM3 2h14c0.552 0 1 0.448 1 1v21h-16v-21c0-0.552 0.448-1 1-1zM17 30h-14c-0.552 0-1-0.448-1-1v-3h16v3c0 0.552-0.448 1-1 1z"></path>
<path fill="#757575" style="fill: var(--color3, #757575)" d="M4.707 27.478c0.391 0.365 0.391 0.956 0 1.321s-1.024 0.365-1.414 0c-0.391-0.365-0.391-0.956 0-1.321s1.024-0.365 1.414 0z"></path>
</symbol>
</defs>
</svg>
